<svg xmlns="http://www.w3.org/2000/svg" viewBox="-0.5 -0.5 16 16" fill="#000000" id="Basket-Bold--Streamline-Phosphor.svg" height="16" width="16"><desc>Basket Bold Streamline Icon: https://streamlinehq.com</desc><path d="M8.260564453125 8.26025390625v2.53449609375c0 0.58531640625 -0.6336269531250001 0.9511406250000001 -1.140521484375 0.658482421875 -0.23525390624999998 -0.13582617187499998 -0.38017968750000003 -0.3868359375 -0.38017968750000003 -0.658482421875V8.26025390625c0 -0.585322265625 0.6336269531250001 -0.9511406250000001 1.14052734375 -0.658482421875 0.23525390624999998 0.1358203125 0.380173828125 0.386830078125 0.380173828125 0.658482421875Zm1.7779511718749998 -0.075404296875 -0.253447265625 2.53449609375c-0.04161328125 0.4178203125 0.263326171875 0.790283203125 0.681146484375 0.83194921875 0.025341796875 0 0.051322265625 0.003802734375 0.07603125000000001 0.003802734375 0.39046875 -0.0003515625 0.717193359375 -0.29640234375 0.75591796875 -0.68494921875l0.253447265625 -2.53449609375c0.051140625 -0.583078125 -0.5480976562500001 -1.0028671875000001 -1.07862890625 -0.7556132812499999 -0.24039257812499998 0.11203125 -0.405041015625 0.34123242187499997 -0.434466796875 0.604810546875Zm-5.076603515625 0c-0.0649453125 -0.581701171875 -0.7352460937499999 -0.87495703125 -1.206544921875 -0.527859375 -0.21355078125000002 0.157271484375 -0.32971875 0.41445703125 -0.30655078125 0.6786621093749999l0.253453125 2.53449609375c0.0387421875 0.38878125 0.36584179687499996 0.684919921875 0.756544921875 0.68494921875 0.02471484375 0 0.0506953125 0 0.07603710937500001 -0.003802734375 0.417814453125 -0.041666015625 0.722759765625 -0.41412890625 0.681146484375 -0.83194921875Zm9.884548828125 -2.3583515625 -0.9548730468750001 7.15995703125c-0.0841171875 0.63116015625 -0.622271484375 1.102693359375 -1.259015625 1.1031445312500001H2.36785546875c-0.634482421875 -0.0018222656249999999 -1.1704453125 -0.47126367187499996 -1.2558457031249999 -1.099974609375L0.15713671875 5.82966796875c-0.063041015625 -0.456978515625 0.292072265625 -0.8643691406249999 0.753380859375 -0.864263671875h2.6960742187499998l3.323361328125 -3.7954101562500004c0.302923828125 -0.346119140625 0.8414003906249999 -0.346119140625 1.14432421875 0l3.3195585937499996 3.7954101562500004h2.6960742187499998c0.45984960937499997 0.000158203125 0.8143125 0.40529882812499995 0.753380859375 0.86109375ZM5.627853515625 4.9654042968750005h3.744720703125l-1.8723574218749999 -2.1403828125000004Zm7.593357421875 1.5206953125H1.7792167968750001l0.8110429687499999 6.082798828125h9.8211796875Z" stroke-width="1"></path></svg>