<svg xmlns="http://www.w3.org/2000/svg" viewBox="-0.5 -0.5 16 16" fill="#000000" id="Student-Bold--Streamline-Phosphor.svg" height="16" width="16"><desc>Student Bold Streamline Icon: https://streamlinehq.com</desc><path d="M14.292416015625001 2.637345703125 7.75880859375 0.45948046875c-0.16732031249999998 -0.056484374999999996 -0.34855664062499997 -0.056484374999999996 -0.5158828125 0L0.709318359375 2.637345703125c-0.3190546875 0.10567382812500001 -0.540791015625 0.39601171875 -0.5587617187499999 0.7316308593749999 -0.000744140625 0.014279296875 -0.000744140625 0.02859375 0 0.042873046875v5.444677734375c0.000533203125 0.6286933593749999 0.681451171875 1.0210546875 1.22565234375 0.7062421875 0.252134765625 -0.1458515625 0.40750781249999996 -0.4149609375 0.40775390624999996 -0.7062421875v-4.31150390625l1.613666015625 0.537662109375c-1.0334296875 1.97811328125 -0.50596875 4.412121093750001 1.2536308593749999 5.784966796875 -1.115865234375 0.550265625 -2.0602441406249996 1.3948593749999998 -2.73118359375 2.442615234375 -0.35097656250000003 0.5216074218750001 -0.005677734375 1.227556640625 0.621533203125 1.2707109375 0.2994609375 0.0206015625 0.586083984375 -0.12472265625000001 0.746443359375 -0.378462890625 0.97119140625 -1.4945625 2.511357421875 -2.351419921875 4.2128144531250005 -2.351419921875s3.241623046875 0.856857421875 4.21621875 2.351419921875c0.33587695312500004 0.53145703125 1.12112109375 0.50002734375 1.4134394531249999 -0.056578125 0.139564453125 -0.26574609375 0.122109375 -0.586634765625 -0.045462890625 -0.835669921875 -0.671583984375 -1.048974609375 -1.6172109375000001 -1.894341796875 -2.734587890625 -2.444654296875 1.759599609375 -1.372845703125 2.287060546875 -3.806853515625 1.25363671875 -5.784966796875l2.6883046875 -0.8963320312499999c0.59621484375 -0.199470703125 0.75291796875 -0.9695625 0.282064453125 -1.3861640625 -0.08213671874999999 -0.07266796874999999 -0.178060546875 -0.12805078125 -0.282064453125 -0.16284374999999998Zm-6.791548828124999 -0.5444648437499999 3.950794921875 1.31896875 -3.950794921875 1.316935546875 -3.9473847656250003 -1.316935546875Zm2.99457421875 5.130240234375c0.000427734375 2.305224609375 -2.494775390625 3.7464550781250003 -4.491369140624999 2.594220703125 -1.47915234375 -0.8536171875 -1.9460390625000001 -2.76945703125 -1.0254492187500002 -4.207880859375l2.264302734375 0.7547636718749999c0.16735546874999999 0.05628515625 0.34852734375 0.05628515625 0.5158828125 0l2.264302734375 -0.7547636718749999c0.308841796875 0.48149999999999993 0.47279296875000004 1.0416210937500001 0.472330078125 1.61366015625Z" stroke-width="1"></path></svg>