<svg id="Users-Stairs--Streamline-Atlas.svg" xmlns="http://www.w3.org/2000/svg" viewBox="-0.5 -0.5 16 16" height="16" width="16"><desc>Users Stairs Streamline Icon: https://streamlinehq.com</desc><defs></defs><path d="M11.09375 2.1125a1.2 1.2 0 1 0 2.4 0 1.2 1.2 0 1 0 -2.4 0" fill="none" stroke="#000000" stroke-miterlimit="10" stroke-width="1"></path><path d="M0.9125 12.887500000000001a1.7999999999999998 1.7999999999999998 0 0 1 1.7937500000000002 -1.7937500000000002 1.7999999999999998 1.7999999999999998 0 0 1 1.7999999999999998 1.7937500000000002" fill="none" stroke="#000000" stroke-miterlimit="10" stroke-width="1"></path><path d="M10.493749999999999 6.3a1.7999999999999998 1.7999999999999998 0 0 1 1.7999999999999998 -1.7937500000000002 1.7999999999999998 1.7999999999999998 0 0 1 1.7937500000000002 1.7937500000000002" fill="none" stroke="#000000" stroke-miterlimit="10" stroke-width="1"></path><path d="M6.3 5.706250000000001a1.2 1.2 0 1 0 2.4 0 1.2 1.2 0 1 0 -2.4 0" fill="none" stroke="#000000" stroke-miterlimit="10" stroke-width="1"></path><path d="M5.699999999999999 9.89375A1.7999999999999998 1.7999999999999998 0 0 1 7.5 8.125a1.7937500000000002 1.7937500000000002 0 0 1 1.7937500000000002 1.7937500000000002" fill="none" stroke="#000000" stroke-miterlimit="10" stroke-width="1"></path><path d="M1.50625 8.7a1.2 1.2 0 1 0 2.4 0 1.2 1.2 0 1 0 -2.4 0" fill="none" stroke="#000000" stroke-miterlimit="10" stroke-width="1"></path><path d="m0.3125 14.087499999999999 5.393750000000001 0 0 -2.99375 4.7875 0 0 -3.59375 4.19375 0" fill="none" stroke="#000000" stroke-miterlimit="10" stroke-width="1"></path></svg>