<svg xmlns="http://www.w3.org/2000/svg" fill="none" viewBox="-0.5 -0.5 24 24" id="Format-Quote-Fill--Streamline-Rounded-Fill-Material-Symbols.svg" height="24" width="24"><desc>Format Quote Fill Streamline Icon: https://streamlinehq.com</desc><path fill="#000000" d="m6.588541666666667 16.123958333333334 1.6052083333333333 -2.7552083333333335c-0.07987708333333333 0.01595625 -0.16770833333333332 0.027935416666666667 -0.2635416666666667 0.0359375 -0.09583333333333334 0.008002083333333333 -0.18366458333333333 0.011979166666666667 -0.2635416666666667 0.011979166666666667 -1.0541666666666667 0 -1.9565812500000002 -0.37533125 -2.707291666666667 -1.1260416666666668C4.2086789583333335 11.539914583333335 3.8333333333333335 10.6375 3.8333333333333335 9.583333333333334s0.375345625 -1.9565812500000002 1.1260416666666668 -2.707291666666667C5.710085416666667 6.12533125 6.612500000000001 5.75 7.666666666666667 5.75s1.9565812500000002 0.37533125 2.707291666666667 1.1260416666666668S11.5 8.529166666666667 11.5 9.583333333333334c0 0.33541666666666664 -0.04393958333333334 0.66283125 -0.13177083333333334 0.9822916666666667 -0.08783125 0.31946041666666664 -0.21960208333333334 0.63091875 -0.3953125 0.9343750000000001l-3.090625 5.390625c-0.06387291666666667 0.12779375 -0.15572916666666667 0.21960208333333334 -0.2755208333333333 0.2755208333333333 -0.11979166666666667 0.05591875 -0.24356041666666667 0.08385416666666666 -0.3713541666666667 0.08385416666666666 -0.2875 0 -0.503125 -0.12376875 -0.6468750000000001 -0.3713541666666667 -0.14375 -0.2475854166666667 -0.14375 -0.49914791666666675 0 -0.7546875Zm8.625 0 1.6052083333333333 -2.7552083333333335c-0.07987708333333333 0.01595625 -0.16770833333333332 0.027935416666666667 -0.2635416666666667 0.0359375 -0.09583333333333334 0.008002083333333333 -0.18366458333333333 0.011979166666666667 -0.2635416666666667 0.011979166666666667 -1.0541666666666667 0 -1.9565812500000002 -0.37533125 -2.707291666666667 -1.1260416666666668S12.458333333333334 10.6375 12.458333333333334 9.583333333333334s0.37533125 -1.9565812500000002 1.1260416666666668 -2.707291666666667S15.2375 5.75 16.291666666666668 5.75s1.9565812500000002 0.37533125 2.707291666666667 1.1260416666666668S20.125 8.529166666666667 20.125 9.583333333333334c0 0.33541666666666664 -0.04393958333333334 0.66283125 -0.13177083333333334 0.9822916666666667 -0.08783125 0.31946041666666664 -0.21960208333333334 0.63091875 -0.3953125 0.9343750000000001l-3.090625 5.390625c-0.06387291666666667 0.12779375 -0.15572916666666667 0.21960208333333334 -0.2755208333333333 0.2755208333333333 -0.11979166666666667 0.05591875 -0.24356041666666667 0.08385416666666666 -0.3713541666666667 0.08385416666666666 -0.2875 0 -0.503125 -0.12376875 -0.6468750000000001 -0.3713541666666667 -0.14375 -0.2475854166666667 -0.14375 -0.49914791666666675 0 -0.7546875Z" stroke-width="1"></path></svg>